{
  "accessors": [
    {
      "bufferView": 2,
      "componentType": 5126,
      "count": 50616,
      "max": [
        304.4805908203125,
        153.52828979492188,
        218.6278076171875
      ],
      "min": [
        0.919700026512146,
        -212.50178527832031,
        -222.23899841308594
      ],
      "type": "VEC3"
    },
    {
      "bufferView": 2,
      "byteOffset": 607392,
      "componentType": 5126,
      "count": 50616,
      "max": [
        0.99985992908477783,
        1,
        0.99726003408432007
      ],
      "min": [
        -0.99999260902404785,
        -1,
        -1
      ],
      "type": "VEC3"
    },
    {
      "bufferView": 1,
      "componentType": 5126,
      "count": 50616,
      "max": [
        0.984375,
        0.546875
      ],
      "min": [
        0.015625,
        0.015625
      ],
      "type": "VEC2"
    },
    {
      "bufferView": 0,
      "componentType": 5125,
      "count": 81759,
      "max": [
        50615
      ],
      "min": [
        0
      ],
      "type": "SCALAR"
    },
    {
      "bufferView": 2,
      "byteOffset": 1214784,
      "componentType": 5126,
      "count": 29285,
      "max": [
        311.66299438476562,
        135.04220581054688,
        252.90229797363281
      ],
      "min": [
        15.098600387573242,
        -219.31120300292969,
        -165.74040222167969
      ],
      "type": "VEC3"
    },
    {
      "bufferView": 2,
      "byteOffset": 1566204,
      "componentType": 5126,
      "count": 29285,
      "max": [
        0.99998342990875244,
        0.9999924898147583,
        0.99755269289016724
      ],
      "min": [
        -0.99997884035110474,
        -0.99862521886825562,
        -0.95925641059875488
      ],
      "type": "VEC3"
    },
    {
      "bufferView": 1,
      "byteOffset": 404928,
      "componentType": 5126,
      "count": 29285,
      "max": [
        0.99987798929214478,
        0.99793899059295654
      ],
      "min": [
        7.0000000960135367e-06,
        0.00022499999613501132
      ],
      "type": "VEC2"
    },
    {
      "bufferView": 0,
      "byteOffset": 327036,
      "componentType": 5125,
      "count": 166983,
      "max": [
        29284
      ],
      "min": [
        0
      ],
      "type": "SCALAR"
    },
    {
      "bufferView": 2,
      "byteOffset": 1917624,
      "componentType": 5126,
      "count": 30749,
      "max": [
        303.60440063476562,
        153.11099243164062,
        285.38381958007812
      ],
      "min": [
        -12.803000450134277,
        -248.144287109375,
        -175.45086669921875
      ],
      "type": "VEC3"
    },
    {
      "bufferView": 2,
      "byteOffset": 2286612,
      "componentType": 5126,
      "count": 30749,
      "max": [
        1,
        1,
        1
      ],
      "min": [
        -1,
        -1,
        -0.99932992458343506
      ],
      "type": "VEC3"
    },
    {
      "bufferView": 1,
      "byteOffset": 639208,
      "componentType": 5126,
      "count": 30749,
      "max": [
        0.99932599067687988,
        0.99909001588821411
      ],
      "min": [
        0,
        0
      ],
      "type": "VEC2"
    },
    {
      "bufferView": 0,
      "byteOffset": 994968,
      "componentType": 5125,
      "count": 164010,
      "max": [
        30748
      ],
      "min": [
        0
      ],
      "type": "SCALAR"
    },
    {
      "bufferView": 2,
      "byteOffset": 2655600,
      "componentType": 5126,
      "count": 5266,
      "max": [
        302.63699340820312,
        117.13701629638672,
        291.45730590820312
      ],
      "min": [
        15.001399993896484,
        -223.38510131835938,
        -220.09994506835938
      ],
      "type": "VEC3"
    },
    {
      "bufferView": 2,
      "byteOffset": 2718792,
      "componentType": 5126,
      "count": 5266,
      "max": [
        0.98108351230621338,
        0.98770374059677124,
        0.99968850612640381
      ],
      "min": [
        -0.99994319677352905,
        -0.99817836284637451,
        -0.99637812376022339
      ],
      "type": "VEC3"
    },
    {
      "bufferView": 1,
      "byteOffset": 885200,
      "componentType": 5126,
      "count": 5266,
      "max": [
        0.99979197978973389,
        0.99985301494598389
      ],
      "min": [
        0.00010199999815085903,
        8.4999999671708792e-05
      ],
      "type": "VEC2"
    },
    {
      "bufferView": 0,
      "byteOffset": 1651008,
      "componentType": 5125,
      "count": 24363,
      "max": [
        5265
      ],
      "min": [
        0
      ],
      "type": "SCALAR"
    },
    {
      "bufferView": 2,
      "byteOffset": 2781984,
      "componentType": 5126,
      "count": 65532,
      "max": [
        295.03939819335938,
        105.68659973144531,
        293.1627197265625
      ],
      "min": [
        -18.036600112915039,
        -265.4031982421875,
        -221.69978332519531
      ],
      "type": "VEC3"
    },
    {
      "bufferView": 2,
      "byteOffset": 3568368,
      "componentType": 5126,
      "count": 65532,
      "max": [
        0.99998921155929565,
        0.9999271035194397,
        0.99964499473571777
      ],
      "min": [
        -0.99998646974563599,
        -1,
        -0.99991476535797119
      ],
      "type": "VEC3"
    },
    {
      "bufferView": 1,
      "byteOffset": 927328,
      "componentType": 5126,
      "count": 65532,
      "max": [
        0.99999499320983887,
        0.9997209906578064
      ],
      "min": [
        9.5000003057066351e-05,
        1.9999999494757503e-05
      ],
      "type": "VEC2"
    },
    {
      "bufferView": 0,
      "byteOffset": 1748460,
      "componentType": 5125,
      "count": 371910,
      "max": [
        65531
      ],
      "min": [
        0
      ],
      "type": "SCALAR"
    },
    {
      "bufferView": 2,
      "byteOffset": 4354752,
      "componentType": 5126,
      "count": 11852,
      "max": [
        303.85031127929688,
        152.06034851074219,
        247.88479614257812
      ],
      "min": [
        -27.833099365234375,
        -103.85379791259766,
        -196.35450744628906
      ],
      "type": "VEC3"
    },
    {
      "bufferView": 2,
      "byteOffset": 4496976,
      "componentType": 5126,
      "count": 11852,
      "max": [
        0.99998778104782104,
        0.99999880790710449,
        1
      ],
      "min": [
        -0.9999503493309021,
        -1,
        -0.99999994039535522
      ],
      "type": "VEC3"
    },
    {
      "bufferView": 1,
      "byteOffset": 1451584,
      "componentType": 5126,
      "count": 11852,
      "max": [
        1.5400470495223999,
        0.99423897266387939
      ],
      "min": [
        0.014143000356853008,
        4.9999998736893758e-05
      ],
      "type": "VEC2"
    },
    {
      "bufferView": 0,
      "byteOffset": 3236100,
      "componentType": 5125,
      "count": 65127,
      "max": [
        11851
      ],
      "min": [
        0
      ],
      "type": "SCALAR"
    }
  ],
  "asset": {
    "extras": {
      "author": "Martin.Lee.Younger (https://sketchfab.com/Martin.Lee.Younger)",
      "license": "CC-BY-4.0 (http://creativecommons.org/licenses/by/4.0/)",
      "source": "https://sketchfab.com/3d-models/small-elephant-statue-bc484343162a46698acb77f619b71bfc",
      "title": "Small Elephant statue"
    },
    "generator": "Sketchfab-8.42.0",
    "version": "2.0"
  },
  "bufferViews": [
    {
      "buffer": 0,
      "byteLength": 3496608,
      "byteOffset": 0,
      "name": "floatBufferViews",
      "target": 34963
    },
    {
      "buffer": 0,
      "byteLength": 1546400,
      "byteOffset": 3496608,
      "byteStride": 8,
      "name": "floatBufferViews",
      "target": 34962
    },
    {
      "buffer": 0,
      "byteLength": 4639200,
      "byteOffset": 5043008,
      "byteStride": 12,
      "name": "floatBufferViews",
      "target": 34962
    }
  ],
  "buffers": [
    {
      "byteLength": 9682208,
      "uri": "scene.bin"
    }
  ],
  "images": [
    {
      "uri": "textures/ColorPerFace_baseColor.png"
    },
    {
      "uri": "textures/material_baseColor.png"
    },
    {
      "uri": "textures/material_2_baseColor.png"
    },
    {
      "uri": "textures/material_3_baseColor.png"
    },
    {
      "uri": "textures/material_4_baseColor.png"
    }
  ],
  "materials": [
    {
      "doubleSided": true,
      "emissiveFactor": [
        0,
        0,
        0
      ],
      "name": "ColorPerFace",
      "pbrMetallicRoughness": {
        "baseColorFactor": [
          1,
          1,
          1,
          1
        ],
        "baseColorTexture": {
          "index": 0,
          "texCoord": 0
        },
        "metallicFactor": 0,
        "roughnessFactor": 1
      }
    },
    {
      "doubleSided": true,
      "emissiveFactor": [
        0,
        0,
        0
      ],
      "name": "material",
      "pbrMetallicRoughness": {
        "baseColorFactor": [
          1,
          1,
          1,
          1
        ],
        "baseColorTexture": {
          "index": 1,
          "texCoord": 0
        },
        "metallicFactor": 0,
        "roughnessFactor": 1
      }
    },
    {
      "doubleSided": true,
      "emissiveFactor": [
        0,
        0,
        0
      ],
      "name": "material_2",
      "pbrMetallicRoughness": {
        "baseColorFactor": [
          1,
          1,
          1,
          1
        ],
        "baseColorTexture": {
          "index": 2,
          "texCoord": 0
        },
        "metallicFactor": 0,
        "roughnessFactor": 1
      }
    },
    {
      "doubleSided": true,
      "emissiveFactor": [
        0,
        0,
        0
      ],
      "name": "material_3",
      "pbrMetallicRoughness": {
        "baseColorFactor": [
          1,
          1,
          1,
          1
        ],
        "baseColorTexture": {
          "index": 3,
          "texCoord": 0
        },
        "metallicFactor": 0,
        "roughnessFactor": 1
      }
    },
    {
      "doubleSided": true,
      "emissiveFactor": [
        0,
        0,
        0
      ],
      "name": "material_4",
      "pbrMetallicRoughness": {
        "baseColorFactor": [
          1,
          1,
          1,
          1
        ],
        "baseColorTexture": {
          "index": 4,
          "texCoord": 0
        },
        "metallicFactor": 0,
        "roughnessFactor": 1
      }
    }
  ],
  "meshes": [
    {
      "primitives": [
        {
          "attributes": {
            "NORMAL": 1,
            "POSITION": 0,
            "TEXCOORD_0": 2
          },
          "indices": 3,
          "material": 0,
          "mode": 4
        }
      ]
    },
    {
      "primitives": [
        {
          "attributes": {
            "NORMAL": 5,
            "POSITION": 4,
            "TEXCOORD_0": 6
          },
          "indices": 7,
          "material": 1,
          "mode": 4
        }
      ]
    },
    {
      "primitives": [
        {
          "attributes": {
            "NORMAL": 9,
            "POSITION": 8,
            "TEXCOORD_0": 10
          },
          "indices": 11,
          "material": 2,
          "mode": 4
        }
      ]
    },
    {
      "primitives": [
        {
          "attributes": {
            "NORMAL": 13,
            "POSITION": 12,
            "TEXCOORD_0": 14
          },
          "indices": 15,
          "material": 3,
          "mode": 4
        }
      ]
    },
    {
      "primitives": [
        {
          "attributes": {
            "NORMAL": 17,
            "POSITION": 16,
            "TEXCOORD_0": 18
          },
          "indices": 19,
          "material": 4,
          "mode": 4
        }
      ]
    },
    {
      "primitives": [
        {
          "attributes": {
            "NORMAL": 21,
            "POSITION": 20,
            "TEXCOORD_0": 22
          },
          "indices": 23,
          "material": 4,
          "mode": 4
        }
      ]
    }
  ],
  "nodes": [
    {
      "children": [
        1
      ],
      "name": "RootNode (gltf orientation matrix)",
      "rotation": [
        -0.70710678118654746,
        -0,
        -0,
        0.70710678118654757
      ]
    },
    {
      "children": [
        2
      ],
      "name": "RootNode (model correction matrix)"
    },
    {
      "children": [
        3,
        4,
        5,
        6,
        7,
        8
      ],
      "name": "file.obj.cleaner.materialmerger.gles"
    },
    {
      "mesh": 0,
      "name": ""
    },
    {
      "mesh": 1,
      "name": ""
    },
    {
      "mesh": 2,
      "name": ""
    },
    {
      "mesh": 3,
      "name": ""
    },
    {
      "mesh": 4,
      "name": ""
    },
    {
      "mesh": 5,
      "name": ""
    }
  ],
  "samplers": [
    {
      "magFilter": 9729,
      "minFilter": 9987,
      "wrapS": 10497,
      "wrapT": 10497
    },
    {
      "magFilter": 9729,
      "minFilter": 9987,
      "wrapS": 33071,
      "wrapT": 33071
    }
  ],
  "scene": 0,
  "scenes": [
    {
      "name": "OSG_Scene",
      "nodes": [
        0
      ]
    }
  ],
  "textures": [
    {
      "sampler": 0,
      "source": 0
    },
    {
      "sampler": 1,
      "source": 1
    },
    {
      "sampler": 1,
      "source": 2
    },
    {
      "sampler": 1,
      "source": 3
    },
    {
      "sampler": 1,
      "source": 4
    }
  ]
}

