{
  "accessors": [
    {
      "bufferView": 2,
      "componentType": 5126,
      "count": 65532,
      "max": [
        4.932830810546875,
        -3.3160603046417236,
        0.40273696184158325
      ],
      "min": [
        -6.0917210578918457,
        -61.082248687744141,
        -20.523996353149414
      ],
      "type": "VEC3"
    },
    {
      "bufferView": 2,
      "byteOffset": 786384,
      "componentType": 5126,
      "count": 65532,
      "max": [
        0.99999970197677612,
        0.99999946355819702,
        0.99999940395355225
      ],
      "min": [
        -0.9999961256980896,
        -0.99981993436813354,
        -0.99998855590820312
      ],
      "type": "VEC3"
    },
    {
      "bufferView": 1,
      "componentType": 5126,
      "count": 65532,
      "max": [
        0.99939602613449097,
        0.63256800174713135
      ],
      "min": [
        0.00024399999529123306,
        0.005824000108987093
      ],
      "type": "VEC2"
    },
    {
      "bufferView": 0,
      "componentType": 5125,
      "count": 303849,
      "max": [
        65531
      ],
      "min": [
        0
      ],
      "type": "SCALAR"
    },
    {
      "bufferView": 2,
      "byteOffset": 1572768,
      "componentType": 5126,
      "count": 65532,
      "max": [
        5.7417640686035156,
        -3.3108632564544678,
        0.336326003074646
      ],
      "min": [
        -6.1734075546264648,
        -61.212512969970703,
        -20.314876556396484
      ],
      "type": "VEC3"
    },
    {
      "bufferView": 2,
      "byteOffset": 2359152,
      "componentType": 5126,
      "count": 65532,
      "max": [
        0.99999994039535522,
        0.99989575147628784,
        0.9999692440032959
      ],
      "min": [
        -0.99999982118606567,
        -0.99999350309371948,
        -0.99997663497924805
      ],
      "type": "VEC3"
    },
    {
      "bufferView": 1,
      "byteOffset": 524256,
      "componentType": 5126,
      "count": 65532,
      "max": [
        0.99927699565887451,
        0.63256800174713135
      ],
      "min": [
        0.00024399999529123306,
        0.0007379999733529985
      ],
      "type": "VEC2"
    },
    {
      "bufferView": 0,
      "byteOffset": 1215396,
      "componentType": 5125,
      "count": 295740,
      "max": [
        65531
      ],
      "min": [
        0
      ],
      "type": "SCALAR"
    },
    {
      "bufferView": 2,
      "byteOffset": 3145536,
      "componentType": 5126,
      "count": 65532,
      "max": [
        5.7554244995117188,
        -22.622800827026367,
        0.39771574735641479
      ],
      "min": [
        -6.1560807228088379,
        -61.212512969970703,
        -19.324337005615234
      ],
      "type": "VEC3"
    },
    {
      "bufferView": 2,
      "byteOffset": 3931920,
      "componentType": 5126,
      "count": 65532,
      "max": [
        1,
        0.99999696016311646,
        0.99999904632568359
      ],
      "min": [
        -0.99999040365219116,
        -0.99999654293060303,
        -0.99999940395355225
      ],
      "type": "VEC3"
    },
    {
      "bufferView": 1,
      "byteOffset": 1048512,
      "componentType": 5126,
      "count": 65532,
      "max": [
        0.99960500001907349,
        0.63256800174713135
      ],
      "min": [
        0.00024399999529123306,
        0.00047699999413453043
      ],
      "type": "VEC2"
    },
    {
      "bufferView": 0,
      "byteOffset": 2398356,
      "componentType": 5125,
      "count": 307164,
      "max": [
        65531
      ],
      "min": [
        0
      ],
      "type": "SCALAR"
    },
    {
      "bufferView": 2,
      "byteOffset": 4718304,
      "componentType": 5126,
      "count": 65532,
      "max": [
        5.7196922302246094,
        -3.3260800838470459,
        0.3810887336730957
      ],
      "min": [
        -5.6453385353088379,
        -61.100067138671875,
        -20.110645294189453
      ],
      "type": "VEC3"
    },
    {
      "bufferView": 2,
      "byteOffset": 5504688,
      "componentType": 5126,
      "count": 65532,
      "max": [
        0.9999997615814209,
        0.99998241662979126,
        0.99999105930328369
      ],
      "min": [
        -0.99999481439590454,
        -0.99996864795684814,
        -0.99998599290847778
      ],
      "type": "VEC3"
    },
    {
      "bufferView": 1,
      "byteOffset": 1572768,
      "componentType": 5126,
      "count": 65532,
      "max": [
        0.99902302026748657,
        0.63256800174713135
      ],
      "min": [
        0.00024399999529123306,
        0.00079399999231100082
      ],
      "type": "VEC2"
    },
    {
      "bufferView": 0,
      "byteOffset": 3627012,
      "componentType": 5125,
      "count": 259674,
      "max": [
        65531
      ],
      "min": [
        0
      ],
      "type": "SCALAR"
    },
    {
      "bufferView": 2,
      "byteOffset": 6291072,
      "componentType": 5126,
      "count": 8192,
      "max": [
        5.732666015625,
        -3.6399688720703125,
        0.097807183861732483
      ],
      "min": [
        -2.9929046630859375,
        -48.287055969238281,
        -19.324337005615234
      ],
      "type": "VEC3"
    },
    {
      "bufferView": 2,
      "byteOffset": 6389376,
      "componentType": 5126,
      "count": 8192,
      "max": [
        0.99999988079071045,
        0.99988824129104614,
        0.99952167272567749
      ],
      "min": [
        -0.99999904632568359,
        -0.66189861297607422,
        -0.99999892711639404
      ],
      "type": "VEC3"
    },
    {
      "bufferView": 1,
      "byteOffset": 2097024,
      "componentType": 5126,
      "count": 8192,
      "max": [
        0.99874001741409302,
        0.63256800174713135
      ],
      "min": [
        0.00024399999529123306,
        0.11831499636173248
      ],
      "type": "VEC2"
    },
    {
      "bufferView": 0,
      "byteOffset": 4665708,
      "componentType": 5125,
      "count": 30375,
      "max": [
        8191
      ],
      "min": [
        0
      ],
      "type": "SCALAR"
    }
  ],
  "asset": {
    "extras": {
      "author": "noe-3d.at (https://sketchfab.com/www.noe-3d.at)",
      "license": "CC-BY-4.0 (http://creativecommons.org/licenses/by/4.0/)",
      "source": "https://sketchfab.com/3d-models/egyptian-souvenir-5f5101031a3947e79835c586fba3de60",
      "title": "Egyptian souvenir"
    },
    "generator": "Sketchfab-8.95.0",
    "version": "2.0"
  },
  "bufferViews": [
    {
      "buffer": 0,
      "byteLength": 4787208,
      "byteOffset": 0,
      "name": "floatBufferViews",
      "target": 34963
    },
    {
      "buffer": 0,
      "byteLength": 2162560,
      "byteOffset": 4787208,
      "byteStride": 8,
      "name": "floatBufferViews",
      "target": 34962
    },
    {
      "buffer": 0,
      "byteLength": 6487680,
      "byteOffset": 6949768,
      "byteStride": 12,
      "name": "floatBufferViews",
      "target": 34962
    }
  ],
  "buffers": [
    {
      "byteLength": 13437448,
      "uri": "scene.bin"
    }
  ],
  "images": [
    {
      "uri": "textures/Egypt_O_Material_u1_v1_baseColor.png"
    }
  ],
  "materials": [
    {
      "doubleSided": true,
      "emissiveFactor": [
        0,
        0,
        0
      ],
      "name": "Egypt_O_Material_u1_v1",
      "pbrMetallicRoughness": {
        "baseColorFactor": [
          1,
          1,
          1,
          1
        ],
        "baseColorTexture": {
          "index": 0,
          "texCoord": 0
        },
        "metallicFactor": 0.23275662890879134,
        "roughnessFactor": 0.46323471292462404
      }
    }
  ],
  "meshes": [
    {
      "primitives": [
        {
          "attributes": {
            "NORMAL": 1,
            "POSITION": 0,
            "TEXCOORD_0": 2
          },
          "indices": 3,
          "material": 0,
          "mode": 4
        }
      ]
    },
    {
      "primitives": [
        {
          "attributes": {
            "NORMAL": 5,
            "POSITION": 4,
            "TEXCOORD_0": 6
          },
          "indices": 7,
          "material": 0,
          "mode": 4
        }
      ]
    },
    {
      "primitives": [
        {
          "attributes": {
            "NORMAL": 9,
            "POSITION": 8,
            "TEXCOORD_0": 10
          },
          "indices": 11,
          "material": 0,
          "mode": 4
        }
      ]
    },
    {
      "primitives": [
        {
          "attributes": {
            "NORMAL": 13,
            "POSITION": 12,
            "TEXCOORD_0": 14
          },
          "indices": 15,
          "material": 0,
          "mode": 4
        }
      ]
    },
    {
      "primitives": [
        {
          "attributes": {
            "NORMAL": 17,
            "POSITION": 16,
            "TEXCOORD_0": 18
          },
          "indices": 19,
          "material": 0,
          "mode": 4
        }
      ]
    }
  ],
  "nodes": [
    {
      "children": [
        1
      ],
      "name": "RootNode (gltf orientation matrix)",
      "rotation": [
        -0.70710678118654746,
        -0,
        -0,
        0.70710678118654757
      ]
    },
    {
      "children": [
        2
      ],
      "matrix": [
        5.749640602572062e-05,
        0.0019566975738763426,
        -7.3722814630753503e-05,
        0,
        -6.4600799796546426e-05,
        -7.1818875310315083e-05,
        -0.0019565467182472429,
        0,
        -0.0019570200686500061,
        5.985765931098945e-05,
        6.241923124074289e-05,
        0,
        -11.574038505554199,
        -32.253147125244141,
        -41.910129547119141,
        1
      ],
      "name": "RootNode (model correction matrix)"
    },
    {
      "children": [
        3,
        4,
        5,
        6,
        7
      ],
      "name": "Egypt_C.obj.cleaner.materialmerger.gles"
    },
    {
      "mesh": 0,
      "name": ""
    },
    {
      "mesh": 1,
      "name": ""
    },
    {
      "mesh": 2,
      "name": ""
    },
    {
      "mesh": 3,
      "name": ""
    },
    {
      "mesh": 4,
      "name": ""
    }
  ],
  "samplers": [
    {
      "magFilter": 9729,
      "minFilter": 9987,
      "wrapS": 10497,
      "wrapT": 10497
    }
  ],
  "scene": 0,
  "scenes": [
    {
      "name": "OSG_Scene",
      "nodes": [
        0
      ]
    }
  ],
  "textures": [
    {
      "sampler": 0,
      "source": 0
    }
  ]
}

