{
  "accessors": [
    {
      "bufferView": 2,
      "componentType": 5126,
      "count": 65532,
      "max": [
        0.87414300441741943,
        6.4116320610046387,
        2.0972199440002441
      ],
      "min": [
        -0.68813198804855347,
        2.4847309589385986,
        -1.3539930582046509
      ],
      "type": "VEC3"
    },
    {
      "bufferView": 2,
      "byteOffset": 786384,
      "componentType": 5126,
      "count": 65532,
      "max": [
        0.99999701976776123,
        1,
        0.99972337484359741
      ],
      "min": [
        -0.99999946355819702,
        -0.99999487400054932,
        -0.99998390674591064
      ],
      "type": "VEC3"
    },
    {
      "bufferView": 3,
      "componentType": 5126,
      "count": 65532,
      "max": [
        0.99996316432952881,
        0.99993205070495605,
        0.99999892711639404,
        1
      ],
      "min": [
        -0.9999961256980896,
        -0.99997121095657349,
        -0.9997827410697937,
        -1
      ],
      "type": "VEC4"
    },
    {
      "bufferView": 1,
      "componentType": 5126,
      "count": 65532,
      "max": [
        1,
        0.97009700536727905
      ],
      "min": [
        0.0040529998950660229,
        0.0042469999752938747
      ],
      "type": "VEC2"
    },
    {
      "bufferView": 0,
      "componentType": 5125,
      "count": 346374,
      "max": [
        65531
      ],
      "min": [
        0
      ],
      "type": "SCALAR"
    },
    {
      "bufferView": 2,
      "byteOffset": 1572768,
      "componentType": 5126,
      "count": 65532,
      "max": [
        0.87414300441741943,
        6.4116320610046387,
        2.0915200710296631
      ],
      "min": [
        -0.80014902353286743,
        2.4608960151672363,
        -1.3461560010910034
      ],
      "type": "VEC3"
    },
    {
      "bufferView": 2,
      "byteOffset": 2359152,
      "componentType": 5126,
      "count": 65532,
      "max": [
        0.99999845027923584,
        1,
        0.99999099969863892
      ],
      "min": [
        -0.99999898672103882,
        -0.99998897314071655,
        -0.99999725818634033
      ],
      "type": "VEC3"
    },
    {
      "bufferView": 3,
      "byteOffset": 1048512,
      "componentType": 5126,
      "count": 65532,
      "max": [
        0.99984502792358398,
        0.9975353479385376,
        0.99999880790710449,
        1
      ],
      "min": [
        -0.99970424175262451,
        -0.99999982118606567,
        -0.99990808963775635,
        -1
      ],
      "type": "VEC4"
    },
    {
      "bufferView": 1,
      "byteOffset": 524256,
      "componentType": 5126,
      "count": 65532,
      "max": [
        1,
        0.96994298696517944
      ],
      "min": [
        0.00025199999799951911,
        0
      ],
      "type": "VEC2"
    },
    {
      "bufferView": 0,
      "byteOffset": 1385496,
      "componentType": 5125,
      "count": 328269,
      "max": [
        65531
      ],
      "min": [
        0
      ],
      "type": "SCALAR"
    },
    {
      "bufferView": 2,
      "byteOffset": 3145536,
      "componentType": 5126,
      "count": 41766,
      "max": [
        0.8624039888381958,
        6.4116320610046387,
        1.7196890115737915
      ],
      "min": [
        -0.79993098974227905,
        2.3777189254760742,
        -1.3532149791717529
      ],
      "type": "VEC3"
    },
    {
      "bufferView": 2,
      "byteOffset": 3646728,
      "componentType": 5126,
      "count": 41766,
      "max": [
        0.99996936321258545,
        1,
        0.95507609844207764
      ],
      "min": [
        -0.99994266033172607,
        -0.99999785423278809,
        -0.99994689226150513
      ],
      "type": "VEC3"
    },
    {
      "bufferView": 3,
      "byteOffset": 2097024,
      "componentType": 5126,
      "count": 41766,
      "max": [
        0.99999445676803589,
        0.99980777502059937,
        0.99995982646942139,
        1
      ],
      "min": [
        -0.99302589893341064,
        -0.99804407358169556,
        -0.99880892038345337,
        -1
      ],
      "type": "VEC4"
    },
    {
      "bufferView": 1,
      "byteOffset": 1048512,
      "componentType": 5126,
      "count": 41766,
      "max": [
        0.99760997295379639,
        0.96462202072143555
      ],
      "min": [
        0.0039510000497102737,
        0.0033700000494718552
      ],
      "type": "VEC2"
    },
    {
      "bufferView": 0,
      "byteOffset": 2698572,
      "componentType": 5125,
      "count": 208875,
      "max": [
        41765
      ],
      "min": [
        0
      ],
      "type": "SCALAR"
    }
  ],
  "asset": {
    "extras": {
      "author": "danderson4 (https://sketchfab.com/danderson4)",
      "license": "CC-BY-NC-4.0 (http://creativecommons.org/licenses/by-nc/4.0/)",
      "source": "https://sketchfab.com/3d-models/granite-statue-of-horus-3944438111b24e7e92c1ae328a37b05e",
      "title": "Granite Statue of Horus"
    },
    "generator": "Sketchfab-5.46.0",
    "version": "2.0"
  },
  "bufferViews": [
    {
      "buffer": 0,
      "byteLength": 3534072,
      "byteOffset": 0,
      "name": "floatBufferViews",
      "target": 34963
    },
    {
      "buffer": 0,
      "byteLength": 1382640,
      "byteOffset": 3534072,
      "byteStride": 8,
      "name": "floatBufferViews",
      "target": 34962
    },
    {
      "buffer": 0,
      "byteLength": 4147920,
      "byteOffset": 4916712,
      "byteStride": 12,
      "name": "floatBufferViews",
      "target": 34962
    },
    {
      "buffer": 0,
      "byteLength": 2765280,
      "byteOffset": 9064632,
      "byteStride": 16,
      "name": "floatBufferViews",
      "target": 34962
    }
  ],
  "buffers": [
    {
      "byteLength": 11829912,
      "uri": "scene.bin"
    }
  ],
  "images": [
    {
      "uri": "textures/Modelout_baseColor.jpeg"
    }
  ],
  "materials": [
    {
      "doubleSided": true,
      "emissiveFactor": [
        0,
        0,
        0
      ],
      "name": "Modelout",
      "pbrMetallicRoughness": {
        "baseColorFactor": [
          1,
          1,
          1,
          1
        ],
        "baseColorTexture": {
          "index": 0,
          "texCoord": 0
        },
        "metallicFactor": 0,
        "roughnessFactor": 0.59999999999999998
      }
    }
  ],
  "meshes": [
    {
      "primitives": [
        {
          "attributes": {
            "NORMAL": 1,
            "POSITION": 0,
            "TANGENT": 2,
            "TEXCOORD_0": 3
          },
          "indices": 4,
          "material": 0,
          "mode": 4
        }
      ]
    },
    {
      "primitives": [
        {
          "attributes": {
            "NORMAL": 6,
            "POSITION": 5,
            "TANGENT": 7,
            "TEXCOORD_0": 8
          },
          "indices": 9,
          "material": 0,
          "mode": 4
        }
      ]
    },
    {
      "primitives": [
        {
          "attributes": {
            "NORMAL": 11,
            "POSITION": 10,
            "TANGENT": 12,
            "TEXCOORD_0": 13
          },
          "indices": 14,
          "material": 0,
          "mode": 4
        }
      ]
    }
  ],
  "nodes": [
    {
      "children": [
        1
      ],
      "name": "RootNode (gltf orientation matrix)",
      "rotation": [
        -0.70710678118654746,
        -0,
        -0,
        0.70710678118654757
      ]
    },
    {
      "children": [
        2
      ],
      "matrix": [
        1,
        0,
        0,
        0,
        0,
        0,
        -1,
        0,
        0,
        1,
        0,
        0,
        0,
        4.0230588912963867,
        4.7662925720214844,
        1
      ],
      "name": "RootNode (model correction matrix)"
    },
    {
      "children": [
        3,
        4,
        5
      ],
      "name": "Modelout.obj.cleaner.materialmerger.gles"
    },
    {
      "mesh": 0,
      "name": ""
    },
    {
      "mesh": 1,
      "name": ""
    },
    {
      "mesh": 2,
      "name": ""
    }
  ],
  "samplers": [
    {
      "magFilter": 9729,
      "minFilter": 9987,
      "wrapS": 10497,
      "wrapT": 10497
    }
  ],
  "scene": 0,
  "scenes": [
    {
      "name": "OSG_Scene",
      "nodes": [
        0
      ]
    }
  ],
  "textures": [
    {
      "sampler": 0,
      "source": 0
    }
  ]
}

