{
  "accessors": [
    {
      "bufferView": 2,
      "componentType": 5126,
      "count": 65532,
      "max": [
        1.4942289590835571,
        2.4270560741424561,
        -6.4708595275878906
      ],
      "min": [
        -0.66429060697555542,
        -0.015881836414337158,
        -9.2805271148681641
      ],
      "type": "VEC3"
    },
    {
      "bufferView": 2,
      "byteOffset": 786384,
      "componentType": 5126,
      "count": 65532,
      "max": [
        0.99997293949127197,
        0.99999231100082397,
        0.99995255470275879
      ],
      "min": [
        -0.93652701377868652,
        -0.89656686782836914,
        -0.83435797691345215
      ],
      "type": "VEC3"
    },
    {
      "bufferView": 1,
      "componentType": 5126,
      "count": 65532,
      "max": [
        0.7600434422492981,
        0.77523475885391235
      ],
      "min": [
        0.49337106943130493,
        0.16836489737033844
      ],
      "type": "VEC2"
    },
    {
      "bufferView": 0,
      "componentType": 5125,
      "count": 347454,
      "max": [
        65531
      ],
      "min": [
        0
      ],
      "type": "SCALAR"
    },
    {
      "bufferView": 2,
      "byteOffset": 1572768,
      "componentType": 5126,
      "count": 65532,
      "max": [
        1.7203477621078491,
        2.2143306732177734,
        -6.45367431640625
      ],
      "min": [
        -1.6884046792984009,
        -0.66476607322692871,
        -9.5997495651245117
      ],
      "type": "VEC3"
    },
    {
      "bufferView": 2,
      "byteOffset": 2359152,
      "componentType": 5126,
      "count": 65532,
      "max": [
        0.9999890923500061,
        0.99989819526672363,
        0.99995070695877075
      ],
      "min": [
        -0.99953943490982056,
        -0.99671512842178345,
        -0.93495857715606689
      ],
      "type": "VEC3"
    },
    {
      "bufferView": 1,
      "byteOffset": 524256,
      "componentType": 5126,
      "count": 65532,
      "max": [
        0.76309847831726074,
        0.77417254447937012
      ],
      "min": [
        0.17131377756595612,
        0.074772141873836517
      ],
      "type": "VEC2"
    },
    {
      "bufferView": 0,
      "byteOffset": 1389816,
      "componentType": 5125,
      "count": 343161,
      "max": [
        65531
      ],
      "min": [
        0
      ],
      "type": "SCALAR"
    },
    {
      "bufferView": 2,
      "byteOffset": 3145536,
      "componentType": 5126,
      "count": 65532,
      "max": [
        2.0551679134368896,
        1.8553730249404907,
        -6.4748945236206055
      ],
      "min": [
        -1.2385156154632568,
        -1.235062837600708,
        -9.7380132675170898
      ],
      "type": "VEC3"
    },
    {
      "bufferView": 2,
      "byteOffset": 3931920,
      "componentType": 5126,
      "count": 65532,
      "max": [
        0.99997442960739136,
        0.99979132413864136,
        0.99999850988388062
      ],
      "min": [
        -0.99987828731536865,
        -0.9999464750289917,
        -0.99976038932800293
      ],
      "type": "VEC3"
    },
    {
      "bufferView": 1,
      "byteOffset": 1048512,
      "componentType": 5126,
      "count": 65532,
      "max": [
        0.9185481071472168,
        0.98980587720870972
      ],
      "min": [
        0.17040818929672241,
        0.022263122722506523
      ],
      "type": "VEC2"
    },
    {
      "bufferView": 0,
      "byteOffset": 2762460,
      "componentType": 5125,
      "count": 344727,
      "max": [
        65531
      ],
      "min": [
        0
      ],
      "type": "SCALAR"
    },
    {
      "bufferView": 2,
      "byteOffset": 4718304,
      "componentType": 5126,
      "count": 65532,
      "max": [
        1.1268473863601685,
        1.48846435546875,
        -6.4994497299194336
      ],
      "min": [
        -2.3565900325775146,
        -1.1225777864456177,
        -8.9309797286987305
      ],
      "type": "VEC3"
    },
    {
      "bufferView": 2,
      "byteOffset": 5504688,
      "componentType": 5126,
      "count": 65532,
      "max": [
        0.99980425834655762,
        0.9984247088432312,
        0.99999839067459106
      ],
      "min": [
        -0.9999653697013855,
        -0.9999464750289917,
        -0.94071656465530396
      ],
      "type": "VEC3"
    },
    {
      "bufferView": 1,
      "byteOffset": 1572768,
      "componentType": 5126,
      "count": 65532,
      "max": [
        0.8472297191619873,
        0.96526026725769043
      ],
      "min": [
        0.097064711153507233,
        0.1216299906373024
      ],
      "type": "VEC2"
    },
    {
      "bufferView": 0,
      "byteOffset": 4141368,
      "componentType": 5125,
      "count": 347355,
      "max": [
        65531
      ],
      "min": [
        0
      ],
      "type": "SCALAR"
    },
    {
      "bufferView": 2,
      "byteOffset": 6291072,
      "componentType": 5126,
      "count": 65532,
      "max": [
        2.0499367713928223,
        2.39031982421875,
        -7.1331110000610352
      ],
      "min": [
        -2.5357198715209961,
        -1.6751372814178467,
        -10.003141403198242
      ],
      "type": "VEC3"
    },
    {
      "bufferView": 2,
      "byteOffset": 7077456,
      "componentType": 5126,
      "count": 65532,
      "max": [
        0.99982190132141113,
        0.99997437000274658,
        0.99999904632568359
      ],
      "min": [
        -0.99863076210021973,
        -0.99937653541564941,
        -0.99998939037322998
      ],
      "type": "VEC3"
    },
    {
      "bufferView": 1,
      "byteOffset": 2097024,
      "componentType": 5126,
      "count": 65532,
      "max": [
        0.99408054351806641,
        0.99279814958572388
      ],
      "min": [
        0.011574674397706985,
        0.0051561766304075718
      ],
      "type": "VEC2"
    },
    {
      "bufferView": 0,
      "byteOffset": 5530788,
      "componentType": 5125,
      "count": 347712,
      "max": [
        65531
      ],
      "min": [
        0
      ],
      "type": "SCALAR"
    },
    {
      "bufferView": 2,
      "byteOffset": 7863840,
      "componentType": 5126,
      "count": 65532,
      "max": [
        1.03391432762146,
        2.6671924591064453,
        -8.0325126647949219
      ],
      "min": [
        -2.1874079704284668,
        1.0890564918518066,
        -10.346626281738281
      ],
      "type": "VEC3"
    },
    {
      "bufferView": 2,
      "byteOffset": 8650224,
      "componentType": 5126,
      "count": 65532,
      "max": [
        0.99989825487136841,
        0.99999856948852539,
        0.99999958276748657
      ],
      "min": [
        -0.999980628490448,
        -0.99478977918624878,
        -0.98710322380065918
      ],
      "type": "VEC3"
    },
    {
      "bufferView": 1,
      "byteOffset": 2621280,
      "componentType": 5126,
      "count": 65532,
      "max": [
        0.99984943866729736,
        0.99843746423721313
      ],
      "min": [
        0.0027457643300294876,
        0.0090930797159671783
      ],
      "type": "VEC2"
    },
    {
      "bufferView": 0,
      "byteOffset": 6921636,
      "componentType": 5125,
      "count": 348717,
      "max": [
        65531
      ],
      "min": [
        0
      ],
      "type": "SCALAR"
    },
    {
      "bufferView": 2,
      "byteOffset": 9436608,
      "componentType": 5126,
      "count": 65532,
      "max": [
        1.364205002784729,
        2.4188029766082764,
        -6.7764492034912109
      ],
      "min": [
        -2.7674951553344727,
        -0.90043556690216064,
        -10.146402359008789
      ],
      "type": "VEC3"
    },
    {
      "bufferView": 2,
      "byteOffset": 10222992,
      "componentType": 5126,
      "count": 65532,
      "max": [
        0.99998605251312256,
        0.9999961256980896,
        0.99995255470275879
      ],
      "min": [
        -0.99993735551834106,
        -0.99919015169143677,
        -0.99669891595840454
      ],
      "type": "VEC3"
    },
    {
      "bufferView": 1,
      "byteOffset": 3145536,
      "componentType": 5126,
      "count": 65532,
      "max": [
        0.99979746341705322,
        0.99998891353607178
      ],
      "min": [
        0.00039124960312619805,
        0.00047391327098011971
      ],
      "type": "VEC2"
    },
    {
      "bufferView": 0,
      "byteOffset": 8316504,
      "componentType": 5125,
      "count": 318996,
      "max": [
        65531
      ],
      "min": [
        0
      ],
      "type": "SCALAR"
    },
    {
      "bufferView": 2,
      "byteOffset": 11009376,
      "componentType": 5126,
      "count": 65532,
      "max": [
        2.0297720432281494,
        2.0410950183868408,
        -6.4540576934814453
      ],
      "min": [
        -1.8737542629241943,
        -0.7739177942276001,
        -9.6296119689941406
      ],
      "type": "VEC3"
    },
    {
      "bufferView": 2,
      "byteOffset": 11795760,
      "componentType": 5126,
      "count": 65532,
      "max": [
        0.99988782405853271,
        0.99999231100082397,
        0.99999839067459106
      ],
      "min": [
        -0.99975126981735229,
        -0.99995201826095581,
        -0.9996495246887207
      ],
      "type": "VEC3"
    },
    {
      "bufferView": 1,
      "byteOffset": 3669792,
      "componentType": 5126,
      "count": 65532,
      "max": [
        0.99965423345565796,
        0.99391239881515503
      ],
      "min": [
        0.00032910009031184018,
        0.024221178144216537
      ],
      "type": "VEC2"
    },
    {
      "bufferView": 0,
      "byteOffset": 9592488,
      "componentType": 5125,
      "count": 240618,
      "max": [
        65531
      ],
      "min": [
        0
      ],
      "type": "SCALAR"
    },
    {
      "bufferView": 2,
      "byteOffset": 12582144,
      "componentType": 5126,
      "count": 65532,
      "max": [
        2.0572729110717773,
        2.5833418369293213,
        -7.5812854766845703
      ],
      "min": [
        -2.7693028450012207,
        -0.91534459590911865,
        -10.371343612670898
      ],
      "type": "VEC3"
    },
    {
      "bufferView": 2,
      "byteOffset": 13368528,
      "componentType": 5126,
      "count": 65532,
      "max": [
        0.99997401237487793,
        0.99999260902404785,
        0.99996870756149292
      ],
      "min": [
        -0.99993735551834106,
        -0.99990427494049072,
        -0.99969398975372314
      ],
      "type": "VEC3"
    },
    {
      "bufferView": 1,
      "byteOffset": 4194048,
      "componentType": 5126,
      "count": 65532,
      "max": [
        0.99985361099243164,
        1
      ],
      "min": [
        0,
        0.00052854546811431646
      ],
      "type": "VEC2"
    },
    {
      "bufferView": 0,
      "byteOffset": 10554960,
      "componentType": 5125,
      "count": 253680,
      "max": [
        65531
      ],
      "min": [
        0
      ],
      "type": "SCALAR"
    },
    {
      "bufferView": 2,
      "byteOffset": 14154912,
      "componentType": 5126,
      "count": 49099,
      "max": [
        1.9965474605560303,
        2.6618871688842773,
        -7.7895908355712891
      ],
      "min": [
        -2.1912474632263184,
        -1.6769585609436035,
        -10.352085113525391
      ],
      "type": "VEC3"
    },
    {
      "bufferView": 2,
      "byteOffset": 14744100,
      "componentType": 5126,
      "count": 49099,
      "max": [
        0.99997913837432861,
        0.99998652935028076,
        0.99999958276748657
      ],
      "min": [
        -0.99929946660995483,
        -0.99985945224761963,
        -0.99996232986450195
      ],
      "type": "VEC3"
    },
    {
      "bufferView": 1,
      "byteOffset": 4718304,
      "componentType": 5126,
      "count": 49099,
      "max": [
        0.99956107139587402,
        1
      ],
      "min": [
        0.00048216298455372453,
        0.00037671660538762808
      ],
      "type": "VEC2"
    },
    {
      "bufferView": 0,
      "byteOffset": 11569680,
      "componentType": 5125,
      "count": 180753,
      "max": [
        49098
      ],
      "min": [
        0
      ],
      "type": "SCALAR"
    }
  ],
  "asset": {
    "extras": {
      "author": "richardwals (https://sketchfab.com/richardwals)",
      "license": "CC-BY-4.0 (http://creativecommons.org/licenses/by/4.0/)",
      "source": "https://sketchfab.com/3d-models/frog-garden-statue-ba08a454f79a44098b9cfb40f40b6c2b",
      "title": "Frog Garden Statue"
    },
    "generator": "Sketchfab-10.10.1-rc1",
    "version": "2.0"
  },
  "bufferViews": [
    {
      "buffer": 0,
      "byteLength": 12292692,
      "byteOffset": 0,
      "name": "floatBufferViews",
      "target": 34963
    },
    {
      "buffer": 0,
      "byteLength": 5111096,
      "byteOffset": 12292692,
      "byteStride": 8,
      "name": "floatBufferViews",
      "target": 34962
    },
    {
      "buffer": 0,
      "byteLength": 15333288,
      "byteOffset": 17403788,
      "byteStride": 12,
      "name": "floatBufferViews",
      "target": 34962
    }
  ],
  "buffers": [
    {
      "byteLength": 32737076,
      "uri": "scene.bin"
    }
  ],
  "images": [
    {
      "uri": "textures/material_0_baseColor.jpeg"
    }
  ],
  "materials": [
    {
      "doubleSided": false,
      "emissiveFactor": [
        0,
        0,
        0
      ],
      "name": "material_0",
      "pbrMetallicRoughness": {
        "baseColorFactor": [
          1,
          1,
          1,
          1
        ],
        "baseColorTexture": {
          "index": 0,
          "texCoord": 0
        },
        "metallicFactor": 0,
        "roughnessFactor": 1
      }
    }
  ],
  "meshes": [
    {
      "primitives": [
        {
          "attributes": {
            "NORMAL": 1,
            "POSITION": 0,
            "TEXCOORD_0": 2
          },
          "indices": 3,
          "material": 0,
          "mode": 4
        }
      ]
    },
    {
      "primitives": [
        {
          "attributes": {
            "NORMAL": 5,
            "POSITION": 4,
            "TEXCOORD_0": 6
          },
          "indices": 7,
          "material": 0,
          "mode": 4
        }
      ]
    },
    {
      "primitives": [
        {
          "attributes": {
            "NORMAL": 9,
            "POSITION": 8,
            "TEXCOORD_0": 10
          },
          "indices": 11,
          "material": 0,
          "mode": 4
        }
      ]
    },
    {
      "primitives": [
        {
          "attributes": {
            "NORMAL": 13,
            "POSITION": 12,
            "TEXCOORD_0": 14
          },
          "indices": 15,
          "material": 0,
          "mode": 4
        }
      ]
    },
    {
      "primitives": [
        {
          "attributes": {
            "NORMAL": 17,
            "POSITION": 16,
            "TEXCOORD_0": 18
          },
          "indices": 19,
          "material": 0,
          "mode": 4
        }
      ]
    },
    {
      "primitives": [
        {
          "attributes": {
            "NORMAL": 21,
            "POSITION": 20,
            "TEXCOORD_0": 22
          },
          "indices": 23,
          "material": 0,
          "mode": 4
        }
      ]
    },
    {
      "primitives": [
        {
          "attributes": {
            "NORMAL": 25,
            "POSITION": 24,
            "TEXCOORD_0": 26
          },
          "indices": 27,
          "material": 0,
          "mode": 4
        }
      ]
    },
    {
      "primitives": [
        {
          "attributes": {
            "NORMAL": 29,
            "POSITION": 28,
            "TEXCOORD_0": 30
          },
          "indices": 31,
          "material": 0,
          "mode": 4
        }
      ]
    },
    {
      "primitives": [
        {
          "attributes": {
            "NORMAL": 33,
            "POSITION": 32,
            "TEXCOORD_0": 34
          },
          "indices": 35,
          "material": 0,
          "mode": 4
        }
      ]
    },
    {
      "primitives": [
        {
          "attributes": {
            "NORMAL": 37,
            "POSITION": 36,
            "TEXCOORD_0": 38
          },
          "indices": 39,
          "material": 0,
          "mode": 4
        }
      ]
    }
  ],
  "nodes": [
    {
      "children": [
        1
      ],
      "name": "RootNode (gltf orientation matrix)",
      "rotation": [
        -0.70710678118654746,
        -0,
        -0,
        0.70710678118654757
      ]
    },
    {
      "children": [
        2
      ],
      "matrix": [
        0.1039362678340261,
        0.085191395708410056,
        0.0023773646982555574,
        0,
        -0.041445438765810749,
        0.053801608945692081,
        -0.1159898137300388,
        0,
        -0.0744681260464084,
        0.088959466211338878,
        0.067872568617815432,
        0,
        2.7875962257385254,
        4.9430751800537109,
        7.5109968185424805,
        1
      ],
      "name": "RootNode (model correction matrix)"
    },
    {
      "children": [
        3
      ],
      "name": "root"
    },
    {
      "children": [
        4
      ],
      "matrix": [
        1,
        0,
        0,
        0,
        0,
        2.2204460492503131e-16,
        1,
        0,
        0,
        -1,
        2.2204460492503131e-16,
        0,
        0,
        0,
        0,
        1
      ],
      "name": "GLTF_SceneRootNode"
    },
    {
      "children": [
        5,
        6,
        7,
        8,
        9,
        10,
        11,
        12,
        13,
        14
      ],
      "name": "_0"
    },
    {
      "mesh": 0,
      "name": ""
    },
    {
      "mesh": 1,
      "name": ""
    },
    {
      "mesh": 2,
      "name": ""
    },
    {
      "mesh": 3,
      "name": ""
    },
    {
      "mesh": 4,
      "name": ""
    },
    {
      "mesh": 5,
      "name": ""
    },
    {
      "mesh": 6,
      "name": ""
    },
    {
      "mesh": 7,
      "name": ""
    },
    {
      "mesh": 8,
      "name": ""
    },
    {
      "mesh": 9,
      "name": ""
    }
  ],
  "samplers": [
    {
      "magFilter": 9729,
      "minFilter": 9729,
      "wrapS": 10497,
      "wrapT": 10497
    }
  ],
  "scene": 0,
  "scenes": [
    {
      "name": "OSG_Scene",
      "nodes": [
        0
      ]
    }
  ],
  "textures": [
    {
      "sampler": 0,
      "source": 0
    }
  ]
}

