{
  "accessors": [
    {
      "bufferView": 2,
      "componentType": 5126,
      "count": 65532,
      "max": [
        1.0137039422988892,
        3.9234910011291504,
        -1.047076940536499
      ],
      "min": [
        -0.13885900378227234,
        3.1050269603729248,
        -1.9008029699325562
      ],
      "type": "VEC3"
    },
    {
      "bufferView": 2,
      "byteOffset": 786384,
      "componentType": 5126,
      "count": 65532,
      "max": [
        0.9999963641166687,
        0.99998116493225098,
        0.9995124340057373
      ],
      "min": [
        -0.99991673231124878,
        -0.99999034404754639,
        -0.89295089244842529
      ],
      "type": "VEC3"
    },
    {
      "bufferView": 1,
      "componentType": 5126,
      "count": 65532,
      "max": [
        0.92215800285339355,
        0.98280197381973267
      ],
      "min": [
        0.14296600222587585,
        0.0035649999044835567
      ],
      "type": "VEC2"
    },
    {
      "bufferView": 0,
      "componentType": 5125,
      "count": 365376,
      "max": [
        65531
      ],
      "min": [
        0
      ],
      "type": "SCALAR"
    },
    {
      "bufferView": 2,
      "byteOffset": 1572768,
      "componentType": 5126,
      "count": 65532,
      "max": [
        1.0720570087432861,
        3.8479619026184082,
        -0.80651998519897461
      ],
      "min": [
        -0.12618200480937958,
        3.1422090530395508,
        -1.7151989936828613
      ],
      "type": "VEC3"
    },
    {
      "bufferView": 2,
      "byteOffset": 2359152,
      "componentType": 5126,
      "count": 65532,
      "max": [
        0.9999963641166687,
        0.99998801946640015,
        0.9999651312828064
      ],
      "min": [
        -0.99994194507598877,
        -0.999980628490448,
        -0.99895948171615601
      ],
      "type": "VEC3"
    },
    {
      "bufferView": 1,
      "byteOffset": 524256,
      "componentType": 5126,
      "count": 65532,
      "max": [
        0.98568999767303467,
        0.99378901720046997
      ],
      "min": [
        0.074910998344421387,
        0.003329999977722764
      ],
      "type": "VEC2"
    },
    {
      "bufferView": 0,
      "byteOffset": 1461504,
      "componentType": 5125,
      "count": 340827,
      "max": [
        65531
      ],
      "min": [
        0
      ],
      "type": "SCALAR"
    },
    {
      "bufferView": 2,
      "byteOffset": 3145536,
      "componentType": 5126,
      "count": 65532,
      "max": [
        1.0631339550018311,
        3.8346960544586182,
        -0.42984598875045776
      ],
      "min": [
        -0.12577000260353088,
        3.1422090530395508,
        -1.3959850072860718
      ],
      "type": "VEC3"
    },
    {
      "bufferView": 2,
      "byteOffset": 3931920,
      "componentType": 5126,
      "count": 65532,
      "max": [
        0.99991661310195923,
        0.99998819828033447,
        0.99977207183837891
      ],
      "min": [
        -0.99992501735687256,
        -0.99999880790710449,
        -0.99997240304946899
      ],
      "type": "VEC3"
    },
    {
      "bufferView": 1,
      "byteOffset": 1048512,
      "componentType": 5126,
      "count": 65532,
      "max": [
        0.9854159951210022,
        0.98523801565170288
      ],
      "min": [
        0.035890001803636551,
        0.019759999588131905
      ],
      "type": "VEC2"
    },
    {
      "bufferView": 0,
      "byteOffset": 2824812,
      "componentType": 5125,
      "count": 336516,
      "max": [
        65531
      ],
      "min": [
        0
      ],
      "type": "SCALAR"
    },
    {
      "bufferView": 2,
      "byteOffset": 4718304,
      "componentType": 5126,
      "count": 65532,
      "max": [
        1.0712809562683105,
        3.8166980743408203,
        -0.37198799848556519
      ],
      "min": [
        -0.12577000260353088,
        3.1372630596160889,
        -1.112144947052002
      ],
      "type": "VEC3"
    },
    {
      "bufferView": 2,
      "byteOffset": 5504688,
      "componentType": 5126,
      "count": 65532,
      "max": [
        0.99978315830230713,
        0.99998754262924194,
        0.99999737739562988
      ],
      "min": [
        -0.99979370832443237,
        -0.99999880790710449,
        -0.99910813570022583
      ],
      "type": "VEC3"
    },
    {
      "bufferView": 1,
      "byteOffset": 1572768,
      "componentType": 5126,
      "count": 65532,
      "max": [
        0.98558998107910156,
        0.99453699588775635
      ],
      "min": [
        0.0038789999671280384,
        0.0047089997678995132
      ],
      "type": "VEC2"
    },
    {
      "bufferView": 0,
      "byteOffset": 4170876,
      "componentType": 5125,
      "count": 333288,
      "max": [
        65531
      ],
      "min": [
        0
      ],
      "type": "SCALAR"
    },
    {
      "bufferView": 2,
      "byteOffset": 6291072,
      "componentType": 5126,
      "count": 13161,
      "max": [
        0.97449100017547607,
        3.7193329334259033,
        -0.37151598930358887
      ],
      "min": [
        0.2053849995136261,
        3.1705329418182373,
        -0.63718199729919434
      ],
      "type": "VEC3"
    },
    {
      "bufferView": 2,
      "byteOffset": 6449004,
      "componentType": 5126,
      "count": 13161,
      "max": [
        0.99978315830230713,
        0.9998125433921814,
        0.99999123811721802
      ],
      "min": [
        -0.99888080358505249,
        -0.99996429681777954,
        -0.99300366640090942
      ],
      "type": "VEC3"
    },
    {
      "bufferView": 1,
      "byteOffset": 2097024,
      "componentType": 5126,
      "count": 13161,
      "max": [
        0.90254902839660645,
        0.78515297174453735
      ],
      "min": [
        0.02429799921810627,
        0.14886899292469025
      ],
      "type": "VEC2"
    },
    {
      "bufferView": 0,
      "byteOffset": 5504028,
      "componentType": 5125,
      "count": 54012,
      "max": [
        13160
      ],
      "min": [
        0
      ],
      "type": "SCALAR"
    }
  ],
  "asset": {
    "extras": {
      "author": "alexng1990 (https://sketchfab.com/alexng1990)",
      "license": "CC-BY-4.0 (http://creativecommons.org/licenses/by/4.0/)",
      "source": "https://sketchfab.com/3d-models/koala-bear-stone-statue-28708441596f47588c78915754d8d11c",
      "title": "Koala Bear Stone Statue"
    },
    "generator": "Sketchfab-7.91.0",
    "version": "2.0"
  },
  "bufferViews": [
    {
      "buffer": 0,
      "byteLength": 5720076,
      "byteOffset": 0,
      "name": "floatBufferViews",
      "target": 34963
    },
    {
      "buffer": 0,
      "byteLength": 2202312,
      "byteOffset": 5720076,
      "byteStride": 8,
      "name": "floatBufferViews",
      "target": 34962
    },
    {
      "buffer": 0,
      "byteLength": 6606936,
      "byteOffset": 7922388,
      "byteStride": 12,
      "name": "floatBufferViews",
      "target": 34962
    }
  ],
  "buffers": [
    {
      "byteLength": 14529324,
      "uri": "scene.bin"
    }
  ],
  "extensionsUsed": [
    "KHR_materials_unlit"
  ],
  "images": [
    {
      "uri": "textures/model_baseColor.jpeg"
    }
  ],
  "materials": [
    {
      "doubleSided": true,
      "emissiveFactor": [
        0,
        0,
        0
      ],
      "extensions": {
        "KHR_materials_unlit": {}
      },
      "name": "model",
      "pbrMetallicRoughness": {
        "baseColorFactor": [
          1,
          1,
          1,
          1
        ],
        "baseColorTexture": {
          "index": 0,
          "texCoord": 0
        },
        "metallicFactor": 0,
        "roughnessFactor": 1
      }
    }
  ],
  "meshes": [
    {
      "primitives": [
        {
          "attributes": {
            "NORMAL": 1,
            "POSITION": 0,
            "TEXCOORD_0": 2
          },
          "indices": 3,
          "material": 0,
          "mode": 4
        }
      ]
    },
    {
      "primitives": [
        {
          "attributes": {
            "NORMAL": 5,
            "POSITION": 4,
            "TEXCOORD_0": 6
          },
          "indices": 7,
          "material": 0,
          "mode": 4
        }
      ]
    },
    {
      "primitives": [
        {
          "attributes": {
            "NORMAL": 9,
            "POSITION": 8,
            "TEXCOORD_0": 10
          },
          "indices": 11,
          "material": 0,
          "mode": 4
        }
      ]
    },
    {
      "primitives": [
        {
          "attributes": {
            "NORMAL": 13,
            "POSITION": 12,
            "TEXCOORD_0": 14
          },
          "indices": 15,
          "material": 0,
          "mode": 4
        }
      ]
    },
    {
      "primitives": [
        {
          "attributes": {
            "NORMAL": 17,
            "POSITION": 16,
            "TEXCOORD_0": 18
          },
          "indices": 19,
          "material": 0,
          "mode": 4
        }
      ]
    }
  ],
  "nodes": [
    {
      "children": [
        1
      ],
      "name": "RootNode (gltf orientation matrix)",
      "rotation": [
        -0.70710678118654746,
        -0,
        -0,
        0.70710678118654757
      ]
    },
    {
      "children": [
        2
      ],
      "matrix": [
        -0.99999016523361206,
        0,
        -0.0044350000098347664,
        0,
        0,
        -1,
        0,
        0,
        -0.0044350000098347664,
        0,
        0.99999016523361206,
        0,
        0.92815542221069336,
        5.476008415222168,
        0.18781428039073944,
        1
      ],
      "name": "RootNode (model correction matrix)"
    },
    {
      "children": [
        3,
        4,
        5,
        6,
        7
      ],
      "name": "model.obj.cleaner.materialmerger.gles"
    },
    {
      "mesh": 0,
      "name": ""
    },
    {
      "mesh": 1,
      "name": ""
    },
    {
      "mesh": 2,
      "name": ""
    },
    {
      "mesh": 3,
      "name": ""
    },
    {
      "mesh": 4,
      "name": ""
    }
  ],
  "samplers": [
    {
      "magFilter": 9729,
      "minFilter": 9987,
      "wrapS": 10497,
      "wrapT": 10497
    }
  ],
  "scene": 0,
  "scenes": [
    {
      "name": "OSG_Scene",
      "nodes": [
        0
      ]
    }
  ],
  "textures": [
    {
      "sampler": 0,
      "source": 0
    }
  ]
}

